<?xml version="1.0" standalone="no"?>
<!DOCTYPE svg PUBLIC "-//W3C//DTD SVG 20010904//EN"
 "http://www.w3.org/TR/2001/REC-SVG-20010904/DTD/svg10.dtd">
<svg version="1.0" xmlns="http://www.w3.org/2000/svg"
 width="400.000000pt" height="400.000000pt" viewBox="0 0 400.000000 400.000000"
 preserveAspectRatio="xMidYMid meet">
<metadata>
Created by potrace 1.14, written by Peter Selinger 2001-2017
</metadata>
<g transform="translate(0.000000,400.000000) scale(0.100000,-0.100000)"
fill="#000000" stroke="none">
<path d="M330 3975 c0 -14 4 -25 9 -25 5 0 11 11 13 25 4 17 1 25 -8 25 -8 0
-14 -11 -14 -25z"/>
<path d="M510 3975 c0 -14 -7 -28 -15 -31 -8 -4 -15 -11 -15 -18 0 -6 -18 -49
-40 -95 -23 -46 -38 -86 -35 -89 3 -3 -6 -18 -20 -32 -24 -25 -27 -37 -37
-184 -10 -142 -9 -159 6 -174 14 -14 16 -14 16 -1 0 8 17 48 39 89 21 41 42
91 46 110 4 19 20 60 36 90 15 30 34 75 41 99 7 25 22 57 35 71 12 15 25 39
29 56 4 16 13 35 21 42 7 7 13 24 13 37 0 13 5 27 10 30 26 16 4 25 -60 25
-68 0 -70 -1 -70 -25z"/>
<path d="M991 3963 c-6 -21 -11 -51 -11 -67 l0 -29 28 39 c30 45 52 81 52 89
0 3 -13 5 -30 5 -25 0 -30 -5 -39 -37z"/>
<path d="M1648 3947 c-43 -29 -87 -52 -107 -54 -39 -4 -71 -26 -155 -107 -34
-32 -74 -68 -91 -79 -16 -12 -52 -43 -79 -69 -45 -44 -53 -48 -97 -48 -33 0
-54 -6 -66 -18 -10 -10 -31 -26 -47 -36 -27 -17 -28 -20 -21 -71 6 -53 6 -53
-24 -60 -27 -6 -31 -11 -31 -40 0 -22 -9 -43 -25 -61 -16 -17 -23 -34 -20 -45
3 -10 -1 -32 -10 -49 -11 -22 -14 -41 -9 -63 9 -40 5 -88 -9 -105 -5 -7 -9
-33 -9 -58 1 -25 -4 -54 -12 -67 -27 -41 -44 -399 -37 -792 2 -94 -2 -139 -19
-210 -19 -78 -22 -120 -23 -310 -1 -236 4 -281 32 -290 36 -11 50 -63 55 -200
3 -108 8 -137 26 -173 24 -49 34 -48 32 3 -3 69 25 30 43 -62 4 -18 15 -39 24
-45 61 -44 52 -127 -30 -280 -13 -25 -11 -32 5 -18 15 11 41 63 66 128 19 48
36 40 45 -20 l7 -53 15 39 c13 31 14 47 4 88 -6 27 -11 68 -11 91 l0 40 25
-23 c14 -13 28 -38 31 -57 3 -18 15 -38 25 -44 11 -5 19 -19 19 -29 0 -11 6
-20 13 -20 14 0 47 -35 47 -51 0 -11 37 -3 56 12 6 5 9 31 8 59 -3 51 7 64 25
33 8 -15 11 -10 12 22 1 22 3 59 3 82 1 24 4 45 7 48 8 8 69 -56 105 -112 42
-65 44 -97 6 -117 -16 -8 -34 -22 -41 -30 -9 -10 -30 -16 -56 -16 -24 0 -48
-6 -54 -14 -6 -7 -30 -16 -52 -19 -23 -3 -60 -19 -84 -36 -40 -29 -201 -109
-375 -186 -47 -21 -108 -53 -137 -72 -29 -19 -83 -46 -120 -61 -37 -14 -101
-46 -143 -72 -41 -25 -124 -67 -185 -94 -60 -26 -112 -50 -114 -52 -3 -2 314
-4 702 -4 693 1 707 1 697 20 -5 10 -10 29 -10 42 0 22 1 21 20 -7 11 -16 20
-24 20 -17 0 6 5 12 10 12 6 0 10 -7 10 -15 0 -8 7 -15 15 -15 8 0 15 -4 15
-10 0 -5 5 -10 12 -10 9 0 9 3 0 12 -18 18 -14 46 8 53 11 3 20 12 20 18 0 7
3 22 6 35 5 16 2 22 -10 22 -14 0 -14 5 5 42 19 37 23 40 34 25 7 -9 15 -17
19 -17 12 0 5 21 -14 40 -11 11 -15 20 -9 20 5 0 7 5 4 10 -3 6 -2 10 3 10 6
0 9 28 7 65 l-4 65 30 -17 c24 -15 31 -15 38 -4 11 17 51 -2 51 -24 0 -8 7
-15 14 -15 21 0 60 -40 75 -76 7 -17 24 -37 38 -43 19 -9 22 -15 14 -24 -17
-21 14 -57 50 -57 17 0 28 -4 24 -9 -3 -5 3 -16 14 -23 10 -7 35 -33 55 -57
34 -41 41 -44 89 -46 30 -1 61 4 73 12 11 7 23 11 26 7 3 -3 5 10 4 28 -1 32
0 33 39 34 22 1 45 3 50 4 6 2 35 0 66 -4 51 -7 56 -10 51 -31 -5 -28 26 -39
45 -15 11 13 13 13 18 -5 5 -17 13 -20 41 -17 19 2 34 0 34 -6 0 -5 35 -10 78
-11 88 -1 122 14 103 46 -6 10 -11 12 -11 6 0 -21 -20 -15 -20 6 0 10 -8 22
-17 25 -14 6 -13 10 12 27 24 17 26 19 8 14 -17 -5 -23 -2 -23 9 0 9 7 16 15
16 9 0 15 9 15 23 l0 22 -20 -25 c-11 -14 -20 -30 -20 -37 0 -6 -4 -15 -10
-18 -6 -4 -8 10 -6 36 6 54 -1 74 -20 58 -23 -19 -27 -3 -8 25 9 15 14 29 11
33 -4 3 -10 -5 -15 -17 -6 -16 -11 -20 -16 -11 -5 7 -1 20 9 31 10 11 15 25
12 32 -6 17 27 150 36 141 4 -3 7 -1 7 5 0 29 -23 18 -58 -27 -35 -44 -41 -48
-55 -34 -13 13 -12 22 15 82 16 36 51 109 78 162 28 53 50 104 50 112 0 9 6
20 13 24 15 9 52 125 62 193 l6 44 -26 -29 c-14 -17 -25 -33 -25 -37 0 -5 -5
-8 -10 -8 -6 0 -20 -9 -32 -20 -35 -32 -80 -25 -86 15 -2 11 -5 21 -6 22 -1 1
-33 -23 -71 -53 -39 -31 -108 -73 -155 -95 -103 -47 -130 -62 -195 -104 -91
-59 -156 -87 -184 -80 -14 3 -41 6 -60 5 -18 0 -39 4 -47 10 -7 7 -18 9 -24 5
-5 -3 -15 -3 -21 1 -8 4 -7 9 2 15 11 6 11 11 2 20 -6 6 -17 8 -25 3 -27 -17
-94 6 -143 49 -18 16 -21 17 -32 1 -17 -24 -33 -8 -26 26 3 18 0 36 -7 45 -7
9 -10 19 -6 23 4 4 14 -2 22 -12 14 -19 14 -19 14 1 0 25 24 33 102 33 31 0
65 3 75 7 16 6 15 8 -7 14 -22 6 -22 7 9 8 42 1 71 25 64 51 -3 11 -9 17 -14
15 -4 -3 -17 5 -29 17 l-21 23 25 3 c27 3 37 32 11 32 -16 0 -10 29 9 43 6 5
-4 6 -22 3 -27 -5 -34 -2 -41 17 -11 27 5 47 40 50 13 1 35 11 48 23 13 12 42
25 65 28 22 4 50 13 62 21 12 7 39 17 60 21 21 4 53 18 70 31 41 30 54 30 24
-2 -26 -28 -24 -34 13 -37 16 -1 30 -11 36 -25 6 -13 15 -23 21 -23 5 0 10 -9
10 -20 0 -10 12 -31 28 -45 l27 -25 11 37 c7 24 8 45 2 56 -5 10 -6 26 -3 36
8 25 9 124 1 147 -3 11 -1 25 3 33 8 12 12 12 25 2 14 -12 16 -10 16 12 0 14
-7 32 -15 41 -19 19 -19 26 0 26 9 0 -2 17 -28 43 -24 23 -52 55 -61 70 -10
15 -23 27 -28 27 -6 0 -19 11 -30 25 -11 14 -25 25 -32 25 -7 0 -30 20 -52 45
-21 25 -42 45 -47 45 -8 0 -24 12 -62 47 -29 27 -151 93 -172 93 -12 0 -14 -7
-9 -27 3 -16 9 -53 12 -83 5 -47 3 -59 -16 -83 -21 -27 -24 -27 -93 -22 -65 6
-76 4 -111 -18 -38 -24 -39 -25 -17 -36 12 -7 30 -9 40 -6 11 3 32 7 47 10 44
6 137 36 153 49 12 9 13 6 9 -17 -5 -23 -3 -27 11 -21 33 14 61 16 61 5 0 -6
8 -11 18 -11 16 0 72 -68 72 -88 0 -5 13 -23 29 -38 36 -37 47 -77 25 -98 -11
-12 -37 -16 -92 -17 -89 -2 -122 -4 -212 -15 -98 -12 -100 -12 -179 -14 -53
-2 -76 2 -82 11 -13 21 -11 33 5 20 10 -8 21 -7 44 4 36 18 46 39 31 67 -7 14
-8 23 -1 30 13 13 4 38 -14 38 -17 0 -18 14 -3 41 9 19 9 19 -10 10 -25 -14
-51 -14 -51 -1 0 21 -84 90 -110 90 -19 0 -30 8 -38 25 -14 31 -15 52 -3 57 5
2 12 28 15 57 4 30 10 57 14 60 10 8 33 100 37 152 1 23 7 44 11 48 11 8 17
36 15 84 0 20 3 37 8 37 8 0 29 89 34 145 1 17 10 37 20 45 10 8 20 28 21 44
4 30 26 52 37 35 3 -6 12 -12 20 -14 37 -8 59 -18 59 -25 0 -5 8 -11 18 -14
15 -5 52 -56 58 -81 12 -53 35 -78 49 -55 13 21 20 8 17 -30 -3 -33 0 -45 18
-60 13 -11 29 -20 36 -20 7 0 14 -5 16 -10 6 -19 113 -33 222 -30 26 0 54 -5
62 -11 11 -9 18 -8 32 5 10 9 24 16 30 16 20 0 13 16 -7 17 -37 3 -101 24
-101 33 0 5 18 19 40 30 22 11 40 25 40 30 0 6 7 10 15 10 8 0 15 5 15 11 0 6
9 8 20 4 12 -4 20 -2 20 6 0 17 96 6 118 -15 24 -21 31 -20 25 4 -4 14 0 20
11 20 9 0 16 5 16 11 0 10 -50 62 -96 99 -35 28 -149 80 -184 85 -54 6 -80 16
-80 31 0 8 5 14 10 14 6 0 10 6 10 14 0 27 171 34 256 10 21 -5 21 -4 15 48
-1 4 -11 8 -23 10 -13 2 -22 9 -21 16 2 6 -3 12 -11 12 -17 0 -78 31 -88 44
-16 23 -243 5 -302 -24 -25 -12 -59 -20 -79 -18 -19 1 -43 -4 -52 -12 -10 -8
-29 -13 -42 -12 -15 2 -34 -5 -48 -18 -14 -13 -31 -20 -40 -17 -19 8 -31 5
-27 -6 1 -5 -6 -8 -15 -7 -42 5 -63 -1 -63 -16 0 -11 6 -13 19 -9 16 5 18 2
14 -15 -4 -14 -1 -20 10 -20 10 0 13 -6 10 -20 -4 -16 -8 -18 -19 -9 -8 6 -14
18 -14 26 0 8 -4 11 -10 8 -5 -3 -10 -2 -10 4 0 6 -7 8 -16 4 -10 -4 -15 -1
-14 8 1 8 2 21 1 29 -1 12 -4 12 -15 -3 -12 -16 -14 -16 -20 -2 -3 9 -11 13
-17 9 -6 -3 -15 0 -20 7 -4 8 -13 14 -18 14 -5 0 -23 15 -40 33 -26 30 -28 37
-19 63 7 21 7 33 -1 43 -6 7 -7 17 -3 21 4 5 -1 5 -10 2 -23 -8 -23 12 -1 28
16 12 10 40 -7 30 -4 -3 -10 4 -13 14 -4 15 -1 18 12 14 13 -5 12 -2 -4 16
l-19 22 24 -4 c14 -2 19 -2 13 0 -15 5 -17 29 -3 38 12 8 13 45 1 45 -5 0 -12
-10 -16 -22 l-8 -23 -4 24 c-3 13 1 27 8 32 10 6 10 11 0 23 -8 9 -9 16 -3 16
6 0 13 -6 16 -12 5 -10 7 -10 12 0 3 6 13 12 22 13 11 0 7 5 -10 13 l-28 12
35 13 c19 7 35 19 35 27 0 19 -19 18 -26 -1 -7 -17 -34 -21 -34 -5 0 6 7 10
16 10 10 0 14 6 11 14 -3 8 -3 17 1 21 4 4 7 12 7 18 0 7 12 13 28 15 15 2 27
8 27 13 0 12 -33 12 -46 -1 -11 -11 -54 -2 -54 12 0 17 20 48 31 48 7 0 9 -10
5 -25 -4 -14 -2 -25 4 -25 5 0 10 5 10 10 0 6 7 10 15 10 11 0 13 7 9 29 -4
21 -2 30 11 34 9 4 13 11 10 17 -3 5 2 10 12 10 23 0 43 18 37 34 -4 11 16 16
69 19 9 1 17 8 17 15 0 10 7 12 23 8 16 -4 26 1 35 14 7 11 19 20 27 20 8 0
15 5 15 11 0 6 7 9 15 6 8 -4 17 -2 20 3 8 13 85 13 85 0 0 -5 5 -10 10 -10 6
0 10 7 10 16 0 18 31 11 71 -17 14 -10 38 -21 55 -24 22 -5 20 -2 -13 14 -62
29 -53 42 15 21 42 -13 57 -22 57 -36 0 -11 6 -20 13 -20 6 -1 13 -2 15 -3 1
-1 19 -4 39 -6 45 -5 84 -37 99 -82 11 -34 29 -45 29 -18 0 8 -9 30 -20 50
-11 20 -20 38 -20 42 0 3 9 -2 20 -12 11 -10 20 -25 20 -32 0 -8 6 -13 13 -10
6 2 10 12 9 22 -3 16 -1 17 12 6 8 -7 21 -10 28 -6 7 4 4 0 -6 -9 -10 -8 -24
-17 -30 -19 -6 -2 -7 -8 -3 -13 4 -4 17 -2 29 5 18 11 24 9 50 -16 30 -29 67
-90 64 -108 0 -5 10 -12 23 -13 23 -4 23 -3 8 13 -23 22 -21 28 3 15 20 -11
37 -43 46 -85 2 -11 15 -28 29 -38 29 -21 33 -40 8 -30 -16 6 -16 5 -5 -10 8
-9 11 -21 8 -26 -4 -5 0 -13 7 -18 8 -4 21 -19 29 -33 20 -32 33 -84 18 -75
-5 3 -10 1 -10 -4 0 -6 7 -11 15 -11 8 0 15 -9 15 -20 0 -11 6 -30 13 -43 13
-24 67 -91 67 -83 0 3 12 -6 28 -21 15 -14 47 -39 72 -56 25 -17 62 -45 83
-64 35 -31 76 -41 135 -34 6 1 12 -2 12 -7 0 -15 -35 -42 -54 -42 -12 0 -16
-5 -12 -16 3 -9 6 -25 6 -36 0 -18 5 -20 45 -16 38 5 44 3 34 -8 -14 -17 -12
-20 21 -28 14 -3 19 -3 13 0 -21 9 -15 23 18 39 39 21 45 15 18 -14 -18 -19
-19 -25 -8 -32 19 -12 39 -11 39 2 0 13 25 39 39 39 11 0 26 48 36 111 3 21
20 53 41 77 50 59 97 57 168 -7 25 -22 28 -23 21 -6 -7 19 -15 51 -45 185 -7
30 -16 59 -21 65 -5 5 -9 17 -9 27 0 9 -10 41 -23 70 -13 29 -27 73 -31 98 -4
25 -20 65 -35 90 -16 25 -32 56 -35 70 -4 14 -25 64 -47 112 -23 48 -43 106
-46 128 -3 23 -12 44 -19 47 -8 3 -24 21 -36 41 -12 21 -45 66 -73 102 -27 36
-63 84 -78 107 -16 22 -42 47 -58 53 -16 7 -29 16 -29 20 0 8 -83 73 -152 120
-20 14 -50 43 -66 66 l-30 41 -101 12 c-64 8 -221 11 -431 10 l-329 -1 -73
-51z m-214 -719 c-3 -4 -9 -8 -15 -8 -5 0 -9 4 -9 8 0 5 7 9 15 9 8 0 12 -4 9
-9z m-104 -458 c0 -5 -2 -10 -4 -10 -3 0 -8 5 -11 10 -3 6 -1 10 4 10 6 0 11
-4 11 -10z m35 -138 c-3 -10 -9 -12 -15 -6 -6 6 -5 24 2 49 l12 40 4 -33 c2
-19 1 -41 -3 -50z m697 -312 c2 -27 0 -40 -9 -40 -7 0 -11 11 -9 28 2 15 4 33
5 40 2 25 9 11 13 -28z m-932 -492 c0 6 5 12 10 12 19 0 10 -38 -10 -43 -16
-4 -20 0 -20 21 0 21 2 24 10 12 6 -10 10 -11 10 -2z m73 -3 c1 -5 -6 -11 -15
-13 -11 -2 -18 3 -18 13 0 17 30 18 33 0z m352 -364 c3 -5 1 -12 -5 -16 -5 -3
-10 1 -10 9 0 18 6 21 15 7z m435 -121 c30 -16 33 -56 8 -101 -20 -36 -26 -40
-53 -36 -19 3 -39 -3 -57 -16 -17 -12 -36 -18 -52 -15 -18 4 -27 0 -31 -12 -8
-24 -33 -29 -143 -29 -87 0 -95 2 -115 25 -11 14 -27 22 -34 20 -7 -3 -13 -4
-13 -3 -1 1 -3 20 -7 42 l-5 40 21 -25 c11 -14 20 -19 21 -13 0 7 10 24 21 37
23 27 45 25 67 -6 12 -17 15 -16 46 17 36 38 57 42 98 21 26 -14 29 -13 38 4
17 32 43 41 79 28 26 -10 33 -10 43 4 11 13 26 22 46 27 2 1 12 -3 22 -9z m90
4 c0 -3 -7 -12 -15 -20 -8 -9 -15 -20 -15 -25 0 -15 17 -10 24 7 3 8 11 12 17
9 15 -10 -19 -45 -43 -45 -22 0 -24 27 -2 58 14 20 34 30 34 16z m-257 -275
c4 -3 2 -11 -6 -18 -12 -9 -14 -7 -14 14 0 14 2 22 6 18 3 -4 10 -10 14 -14z
m-33 -14 c0 -9 -6 -18 -12 -20 -24 -8 -147 -15 -163 -9 -28 11 -4 24 48 25 29
1 63 5 77 9 39 12 50 11 50 -5z m990 -185 c-16 -31 -23 -18 -8 15 7 15 14 23
16 17 2 -6 -2 -21 -8 -32z m-1780 -8 c0 -15 -2 -15 -10 -2 -13 20 -13 33 0 25
6 -3 10 -14 10 -23z m1706 -162 c-31 -58 -65 -125 -78 -150 -29 -57 -27 -54
-34 -47 -4 3 6 27 20 52 35 59 121 233 132 265 7 22 9 23 11 5 2 -11 -21 -67
-51 -125z m-504 -252 c-2 -12 4 -18 18 -18 16 0 20 -6 20 -30 0 -22 4 -28 15
-24 8 4 15 2 15 -2 -1 -15 -27 -44 -33 -37 -4 3 -7 1 -7 -5 0 -32 -62 8 -72
46 -5 16 0 29 15 43 l22 20 -23 6 c-31 8 -27 25 6 21 19 -2 26 -8 24 -20z
m460 -63 c-4 -26 -22 -45 -22 -25 0 12 18 50 24 50 2 0 1 -11 -2 -25z m-42
-75 c0 -12 -3 -12 -16 2 -9 9 -13 21 -9 28 9 14 25 -5 25 -30z m-660 -130 c0
-5 -7 -10 -15 -10 -8 0 -15 5 -15 10 0 6 7 10 15 10 8 0 15 -4 15 -10z m410
-20 c0 -5 -5 -10 -11 -10 -5 0 -7 5 -4 10 3 6 8 10 11 10 2 0 4 -4 4 -10z
m-52 -7 c-10 -2 -26 -2 -35 0 -10 3 -2 5 17 5 19 0 27 -2 18 -5z m72 -13 c-9
-16 -8 -20 7 -20 12 0 14 -3 7 -10 -8 -8 -19 -7 -39 0 -19 7 -31 7 -40 0 -9
-8 -15 -8 -20 0 -12 19 6 31 39 24 25 -4 35 -2 39 10 4 9 9 16 12 16 3 0 1 -9
-5 -20z m-110 -20 c0 -5 -15 -10 -32 -10 -25 0 -29 3 -18 10 20 13 50 13 50 0z
m240 -10 c0 -5 -5 -10 -11 -10 -5 0 -7 5 -4 10 3 6 8 10 11 10 2 0 4 -4 4 -10z
m-1110 -20 c0 -5 -2 -10 -4 -10 -3 0 -8 5 -11 10 -3 6 -1 10 4 10 6 0 11 -4
11 -10z m50 -62 c0 -6 -9 -3 -20 7 -11 10 -20 24 -20 32 0 9 6 7 20 -7 11 -11
20 -25 20 -32z m770 45 c-1 -14 -27 -43 -39 -43 -16 0 -14 11 7 31 18 19 32
24 32 12z"/>
<path d="M2198 383 c-25 -6 -23 -33 2 -33 11 0 20 2 20 4 0 2 3 11 6 20 6 16
3 17 -28 9z"/>
<path d="M934 3772 c-6 -4 -17 -25 -24 -47 -7 -22 -30 -65 -50 -95 -35 -52
-58 -100 -46 -100 2 0 15 4 28 9 33 12 111 166 106 209 -2 20 -7 29 -14 24z"/>
<path d="M785 3479 c-4 -6 -5 -13 -2 -16 7 -7 27 6 27 18 0 12 -17 12 -25 -2z"/>
<path d="M726 3411 c-9 -9 -16 -32 -16 -50 0 -25 -4 -32 -14 -28 -10 4 -17 -4
-21 -26 -4 -18 -16 -40 -26 -50 -11 -10 -19 -26 -19 -35 0 -10 -7 -27 -15 -38
-8 -10 -15 -26 -15 -35 0 -9 -9 -24 -20 -34 -11 -10 -20 -30 -20 -44 0 -15
-11 -43 -25 -63 -14 -20 -25 -45 -26 -55 0 -10 -11 -36 -24 -58 -14 -22 -31
-54 -39 -72 -9 -17 -20 -34 -25 -37 -5 -3 -12 -27 -16 -52 -3 -26 -9 -53 -12
-60 -3 -8 0 -14 6 -14 6 0 16 12 22 28 6 15 40 86 75 158 81 166 104 221 104
244 0 10 6 25 13 32 6 7 21 31 32 53 11 22 25 45 31 50 16 14 54 110 54 134 0
12 7 21 15 21 16 0 21 35 6 44 -4 3 -16 -3 -25 -13z"/>
<path d="M2312 3168 c2 -12 10 -24 18 -26 13 -5 13 -3 2 11 -8 9 -11 21 -7 27
3 5 1 10 -5 10 -6 0 -10 -10 -8 -22z"/>
<path d="M1490 2983 c0 -43 5 -41 13 5 4 18 2 32 -3 32 -6 0 -10 -16 -10 -37z"/>
<path d="M1480 2825 c0 -6 4 -15 9 -20 5 -6 12 -29 16 -52 6 -40 5 -43 -17
-44 -21 0 -22 -1 -3 -9 15 -6 24 -2 37 14 22 26 23 65 2 73 -8 3 -13 12 -10
20 4 8 1 11 -5 7 -6 -4 -15 0 -20 7 -5 8 -9 9 -9 4z"/>
<path d="M1410 2792 c0 -5 7 -13 16 -16 10 -4 14 -1 12 6 -5 15 -28 23 -28 10z"/>
<path d="M1470 2749 c0 -5 5 -7 10 -4 6 3 10 8 10 11 0 2 -4 4 -10 4 -5 0 -10
-5 -10 -11z"/>
<path d="M1420 2700 c0 -5 5 -10 10 -10 6 0 10 5 10 10 0 6 -4 10 -10 10 -5 0
-10 -4 -10 -10z"/>
<path d="M1420 2670 c0 -5 5 -10 10 -10 6 0 10 5 10 10 0 6 -4 10 -10 10 -5 0
-10 -4 -10 -10z"/>
<path d="M1468 2635 c-9 -47 3 -63 27 -38 17 16 17 18 2 21 -9 2 -17 15 -19
30 -3 23 -4 21 -10 -13z"/>
<path d="M2400 2533 c0 -15 63 -61 76 -56 18 7 8 23 -14 23 -13 0 -14 2 -4 8
9 6 5 12 -13 20 -30 14 -45 15 -45 5z"/>
<path d="M3305 2492 c-28 -6 -43 -21 -29 -30 19 -13 67 -83 90 -130 l22 -47
11 28 c17 43 13 79 -12 127 -23 44 -47 59 -82 52z"/>
<path d="M3143 2273 c-7 -18 -6 -39 0 -58 15 -43 42 -90 53 -90 40 -1 44 -46
8 -82 -20 -20 -23 -28 -12 -34 22 -14 33 -10 63 21 24 25 28 37 28 85 0 48 -4
60 -28 85 -16 17 -26 30 -22 30 4 0 -7 16 -24 35 -39 42 -54 44 -66 8z"/>
<path d="M3438 2263 c-9 -21 -21 -69 -28 -108 -22 -119 -64 -228 -118 -307
-16 -24 -41 -66 -55 -94 -15 -29 -43 -66 -64 -83 -32 -27 -46 -31 -94 -31 -38
0 -61 5 -69 15 -7 8 -10 15 -6 15 4 0 -1 12 -11 27 l-17 26 -14 -33 c-7 -18
-15 -71 -18 -119 -3 -47 -9 -104 -15 -126 -5 -22 -13 -79 -19 -128 -5 -48 -16
-97 -25 -109 -8 -13 -15 -29 -15 -38 1 -9 7 -4 15 12 15 26 40 40 80 43 17 1
25 19 48 111 16 60 35 126 44 146 9 20 13 44 10 52 -7 16 16 69 25 60 3 -3 4
-22 1 -43 -3 -21 0 -55 7 -76 14 -41 6 -58 -13 -30 -13 16 -15 15 -29 -21 -9
-22 -24 -74 -34 -116 -15 -67 -16 -81 -4 -103 10 -19 11 -33 3 -59 -17 -54 -4
-137 24 -164 28 -26 32 -27 69 -7 16 8 23 15 17 15 -7 0 -13 5 -13 11 0 6 9 9
20 6 17 -4 19 -1 14 20 -4 16 -2 28 6 33 11 7 10 13 -4 34 -12 18 -14 31 -7
44 6 12 1 52 -15 126 -13 60 -22 111 -20 113 2 3 14 -40 27 -94 16 -71 30
-108 51 -133 15 -19 28 -45 28 -58 0 -12 7 -39 16 -60 9 -20 18 -48 20 -61 10
-50 33 -56 54 -13 8 15 19 34 26 42 6 8 27 54 48 101 26 64 36 100 36 141 0
30 4 58 9 63 19 21 50 165 53 250 1 50 -1 167 -5 260 -4 94 -10 239 -12 324
-2 84 -6 155 -8 158 -3 2 -11 -13 -19 -34z m-331 -865 c-3 -8 -6 -5 -6 6 -1
11 2 17 5 13 3 -3 4 -12 1 -19z m-2 -348 c3 -5 1 -10 -4 -10 -6 0 -11 5 -11
10 0 6 2 10 4 10 3 0 8 -4 11 -10z"/>
<path d="M3110 2030 c0 -22 1 -23 24 -14 23 9 20 34 -4 34 -13 0 -20 -7 -20
-20z"/>
<path d="M3085 1959 c-9 -17 -14 -33 -12 -36 11 -10 47 19 47 37 0 32 -18 32
-35 -1z"/>
<path d="M3056 1842 c-2 -4 4 -25 14 -47 11 -22 19 -48 20 -57 0 -10 5 -18 11
-18 10 0 9 30 -4 70 -3 8 -8 25 -12 38 -7 22 -20 29 -29 14z"/>
<path d="M3070 1680 c-8 -5 -10 -10 -5 -10 6 0 3 -5 -5 -10 -12 -8 -11 -10 8
-10 15 0 22 6 22 20 0 23 0 23 -20 10z"/>
<path d="M1620 1589 c0 -5 5 -7 10 -4 6 3 10 8 10 11 0 2 -4 4 -10 4 -5 0 -10
-5 -10 -11z"/>
<path d="M2972 1138 c7 -15 15 -23 17 -17 2 6 -4 18 -13 27 -15 15 -15 15 -4
-10z"/>
<path d="M2866 1114 c-3 -9 -6 -23 -6 -31 0 -13 3 -13 15 -3 16 13 21 50 6 50
-5 0 -12 -7 -15 -16z"/>
<path d="M2906 875 c-9 -14 -19 -38 -22 -54 -5 -25 -3 -30 17 -33 28 -4 38
-40 18 -64 -9 -12 -9 -20 1 -39 7 -14 17 -25 22 -25 19 0 7 -74 -16 -99 -13
-15 -26 -44 -29 -66 l-6 -40 25 48 c25 47 47 60 58 32 6 -17 15 -19 36 -5 13
8 11 12 -8 26 -20 14 -23 22 -18 53 14 86 14 101 2 101 -21 0 -40 45 -27 67 7
15 6 25 -5 42 -9 12 -14 30 -12 39 3 10 -1 23 -8 29 -9 10 -16 7 -28 -12z"/>
<path d="M3097 870 c-14 -20 -19 -22 -26 -11 -5 7 -14 10 -20 7 -14 -9 -15
-36 -1 -36 6 0 10 -7 10 -15 0 -8 -4 -15 -10 -15 -5 0 -10 -13 -10 -30 0 -16
3 -30 6 -30 14 0 54 52 48 61 -3 6 2 19 11 29 9 10 15 29 13 42 l-3 23 -18
-25z"/>
<path d="M3146 871 c-4 -7 -5 -15 -2 -18 9 -9 19 4 14 18 -4 11 -6 11 -12 0z"/>
<path d="M3212 787 c-7 -8 -6 -18 3 -31 8 -10 21 -44 31 -75 28 -94 48 -145
52 -132 2 7 -1 24 -7 39 -6 15 -10 36 -9 47 1 11 -11 44 -26 74 -15 30 -25 60
-22 67 7 18 -9 27 -22 11z"/>
<path d="M3027 687 c-14 -21 -13 -24 4 -35 25 -16 34 -15 21 1 -6 7 -9 23 -5
35 7 28 -1 28 -20 -1z"/>
<path d="M3165 679 c9 -17 21 -58 26 -92 5 -34 18 -84 28 -112 10 -27 22 -68
25 -90 4 -22 16 -66 27 -98 11 -32 16 -63 13 -69 -4 -7 -3 -8 4 -4 8 5 12 0
12 -13 0 -32 18 -34 25 -1 5 21 -1 46 -23 92 -40 84 -48 113 -31 102 10 -6 10
-2 -1 16 -9 14 -24 52 -34 85 -11 33 -23 72 -28 87 -6 15 -7 31 -4 37 8 13
-30 91 -44 91 -6 0 -3 -14 5 -31z"/>
<path d="M2721 588 c-13 -47 -21 -92 -19 -100 3 -7 11 12 18 42 7 30 17 60 22
67 5 6 8 27 6 45 -2 27 -7 18 -27 -54z"/>
<path d="M3090 604 c0 -9 11 -25 24 -35 14 -11 39 -43 56 -72 17 -28 29 -43
25 -33 -9 28 -89 155 -97 156 -5 0 -8 -7 -8 -16z"/>
<path d="M1034 566 c-10 -25 0 -38 13 -17 8 13 9 22 3 26 -6 4 -13 -1 -16 -9z"/>
<path d="M3045 530 c-3 -10 1 -32 9 -48 8 -16 17 -45 19 -63 3 -19 10 -45 16
-59 12 -27 13 -28 -8 95 -10 56 -6 70 8 34 l10 -24 0 26 c1 18 -7 32 -23 43
-23 15 -25 14 -31 -4z"/>
<path d="M3320 511 c0 -6 4 -13 10 -16 6 -3 7 1 4 9 -7 18 -14 21 -14 7z"/>
<path d="M2636 443 c-6 -14 -5 -15 5 -6 7 7 10 15 7 18 -3 3 -9 -2 -12 -12z"/>
<path d="M3690 434 c0 -5 16 -19 35 -32 19 -12 35 -26 35 -32 0 -18 -138 -205
-209 -283 -39 -42 -71 -80 -71 -82 0 -3 117 -5 260 -5 l260 0 0 153 0 152 -43
26 c-23 14 -57 32 -75 39 -19 7 -38 24 -43 37 -6 18 -16 23 -41 23 -18 0 -50
3 -70 6 -21 4 -38 3 -38 -2z"/>
<path d="M3111 419 c-1 -9 6 -32 14 -50 18 -43 18 -16 0 31 -7 19 -14 28 -14
19z"/>
<path d="M3217 389 c4 -13 8 -18 11 -10 2 7 -1 18 -6 23 -8 8 -9 4 -5 -13z"/>
<path d="M3113 301 c3 -13 2 -33 -4 -43 -6 -12 -6 -18 1 -18 5 0 10 -13 10
-30 0 -21 -5 -30 -16 -30 -11 0 -14 -6 -8 -22 4 -13 7 -29 7 -35 0 -7 4 -13 9
-13 4 0 8 -12 9 -27 1 -26 1 -26 11 7 13 46 4 208 -12 223 -10 10 -11 7 -7
-12z"/>
<path d="M3240 305 c0 -8 4 -15 10 -15 5 0 7 7 4 15 -4 8 -8 15 -10 15 -2 0
-4 -7 -4 -15z"/>
<path d="M2877 294 c-4 -4 -7 -14 -7 -23 0 -11 3 -12 11 -4 6 6 10 16 7 23 -2
6 -7 8 -11 4z"/>
<path d="M3027 224 c-15 -25 -27 -53 -27 -62 1 -9 13 6 27 33 14 28 30 53 35
56 6 4 6 9 1 12 -5 3 -21 -14 -36 -39z"/>
<path d="M1660 246 c0 -2 7 -9 15 -16 13 -11 14 -10 9 4 -5 14 -24 23 -24 12z"/>
<path d="M3257 213 c8 -50 13 -55 13 -10 0 20 -4 38 -9 42 -6 3 -7 -10 -4 -32z"/>
<path d="M3101 214 c0 -11 3 -14 6 -6 3 7 2 16 -1 19 -3 4 -6 -2 -5 -13z"/>
<path d="M1612 158 c6 -18 28 -21 28 -4 0 9 -7 16 -16 16 -9 0 -14 -5 -12 -12z"/>
<path d="M2890 100 c-2 -3 -4 -14 -5 -25 -2 -11 -6 -33 -10 -49 -6 -20 -5 -27
3 -22 13 8 26 69 19 88 -3 7 -6 11 -7 8z"/>
<path d="M2280 69 c0 -5 5 -7 10 -4 6 3 10 8 10 11 0 2 -4 4 -10 4 -5 0 -10
-5 -10 -11z"/>
<path d="M2790 10 c0 -5 5 -10 10 -10 6 0 10 5 10 10 0 6 -4 10 -10 10 -5 0
-10 -4 -10 -10z"/>
</g>
</svg>
