<svg id="Layer_1" data-name="Layer 1" xmlns="http://www.w3.org/2000/svg" viewBox="0 0 161.21 26.06"><defs><style>.cls-1{fill:#333;}</style></defs><title>logo</title><path class="cls-1" d="M15.87,26.78H11.12L1,1.61H5.75L13.49,20.4,21.23,1.61H26Z" transform="translate(-1 -1)"/><path class="cls-1" d="M34.55,26.78H30.3V1.61h6.62l7.6,15.8,7.6-15.8h6.59V26.78H54.46V7.12L45.68,24.58H43.3L34.55,7.12V26.78Z" transform="translate(-1 -1)"/><path class="cls-1" d="M83.37,1.61v4H69.94v6.66H82V16H69.94v6.73H83.8v4H65.69V1.61H83.37Z" transform="translate(-1 -1)"/><path class="cls-1" d="M109.32,9.78q0,6.23-5.44,7.85l6.59,9.14h-5.4l-6-8.46H93.48v8.46H89.24V1.61H98.6q5.76,0,8.24,1.94T109.32,9.78Zm-5.65,3.56A4.49,4.49,0,0,0,105,9.77q0-2.47-1.33-3.38t-4.75-.92h-5.4v9h5.29Q102.37,14.46,103.67,13.35Z" transform="translate(-1 -1)"/><path class="cls-1" d="M126.21,22.92a8.89,8.89,0,0,0,3.78-.74,13,13,0,0,0,3.31-2.36L136,22.64a12.59,12.59,0,0,1-9.7,4.43,13,13,0,0,1-9.47-3.67,12.43,12.43,0,0,1-3.76-9.29,12.55,12.55,0,0,1,3.83-9.36A13.3,13.3,0,0,1,126.62,1a12.66,12.66,0,0,1,9.77,4.32l-2.7,3a11.81,11.81,0,0,0-3.4-2.41,9.54,9.54,0,0,0-3.76-.68,8.94,8.94,0,0,0-6.41,2.47,8.31,8.31,0,0,0-2.59,6.3,8.7,8.7,0,0,0,2.57,6.41A8.34,8.34,0,0,0,126.21,22.92Z" transform="translate(-1 -1)"/><path class="cls-1" d="M141.22,26.78V1.61h4.25V12.52H158V1.61h4.25V26.78H158V16.48H145.47v10.3h-4.25Z" transform="translate(-1 -1)"/></svg>